<svg xmlns="http://www.w3.org/2000/svg" width="87.265" height="47.529" viewBox="0 0 87.265 47.529">
  <g id="Dish_Color_RGB" data-name="Dish Color RGB" transform="translate(43.633 23.764)">
    <g id="Grupo_3" data-name="Grupo 3" transform="translate(-43.633 -23.764)">
      <g id="Grupo_2" data-name="Grupo 2">
        <g id="Grupo_1" data-name="Grupo 1">
          <path id="Trazado_1" data-name="Trazado 1" d="M866.527,10c-5.982-8.391-23.1-6.449-40.216,3.95a5.377,5.377,0,0,0-.342-.858c21.1-13.342,41.883-17.083,48.052-8.435C877.828,10,875.24,19.03,868.1,28.826a10.211,10.211,0,0,0-1.106-4.175c2.176-5.744,2.186-10.935-.468-14.654" transform="translate(-788.576 0)" fill="#ed1420"/>
          <path id="Trazado_2" data-name="Trazado 2" d="M906.358,503.4c0,4.017,2.945,6.011,6.224,7.864l2.925,1.663c1.592.9,2.305,1.911,2.305,3.286,0,1.821-1.344,2.953-3.509,2.953-3.989,0-5.19-3.315-5.839-6.559l-.1-.506H906.41v9.13h1.517l.188-.21c.35-.4.35-.4.69-.4a9.443,9.443,0,0,1,2.213.363,16.045,16.045,0,0,0,3.637.544c3.3,0,7.948-2.213,7.948-7.136,0-3.433-2.056-4.971-4.539-6.492l-5.456-3.233a3.376,3.376,0,0,1-1.861-3.042c0-1.064.853-2.647,3.2-2.647,1.747,0,3.893.647,4.984,5.706l.106.5h1.914l-.239-8.171h-1.531l-.183.316a.429.429,0,0,1-.362.239c-.078,0-.508-.143-.766-.226a13.142,13.142,0,0,0-3.923-.783c-4.4,0-7.594,2.874-7.594,6.836" transform="translate(-865.325 -474.081)"/>
          <path id="Trazado_3" data-name="Trazado 3" d="M5.6,269.786c0-6.46,3.031-8.754,5.629-8.754a4.6,4.6,0,0,1,4.566,4.719v11.206a3.8,3.8,0,0,1-3.86,2.5c-2.923,0-6.335-2.536-6.335-9.666m14.761-22.7-.163.058h0c-.906.324-4.474,1.494-7.354,2.2l-.479.119v2l.692-.073c1.617-.166,2.228.045,2.458.252.265.239.279.724.279,1.493v6.73a7.639,7.639,0,0,0-4.717-1.506,10.367,10.367,0,0,0-7.825,3.953A14.363,14.363,0,0,0,0,271.4c0,11.6,8.809,11.93,9.813,11.93a8.206,8.206,0,0,0,5.979-2.252v1.789l.725.54,8.152-2.883v-1.932l-.678.052c-1.584.123-2.192-.107-2.424-.32s-.277-.6-.277-1.275V247.412l-.871-.348Z" transform="translate(0 -235.879)"/>
          <path id="Trazado_4" data-name="Trazado 4" d="M1270.526,280.194c-2.222-.393-2.509-.445-2.509-3.671v-10.14c0-5.74-2.3-8.651-6.832-8.651a9.109,9.109,0,0,0-6.788,3.137V246.9l-.829-.5-.08.033-.214.087c-1.065.436-5.2,1.669-7.094,2.2l-.46.127v1.989l.7-.078a9.788,9.788,0,0,1,1.191-.047,1.368,1.368,0,0,1,.99.291,2.163,2.163,0,0,1,.3,1.472s0,.228,0,.228v23.715c0,3.223-.2,3.5-2.663,3.764l-.566.062V282.2h11.7v-2l-.1-.012c-2.259-.241-2.868-.306-2.868-3.714V264.517c.284-.35,2.362-2.8,4.918-2.8,2.219,0,3.207,1.5,3.207,4.869v9.938c0,3.13-.54,3.489-2.85,3.662l-.046,0V282.2h11.42v-1.914l-.52-.091" transform="translate(-1189.276 -235.251)"/>
          <path id="Trazado_5" data-name="Trazado 5" d="M571.836,918.861c3.858,0,5.808-2.23,7.18-4.874.091-.175.02-.3-.156-.215a15.213,15.213,0,0,1-14.051,0c-.173-.08-.245.04-.154.215,1.372,2.644,3.322,4.874,7.181,4.874" transform="translate(-539.054 -872.379)" fill="#ed1420"/>
          <path id="Trazado_6" data-name="Trazado 6" d="M598.881,773.571c1.063,2.061,2.592,3.86,5.64,3.86s4.575-1.8,5.639-3.86c.072-.138.014-.243-.135-.177a12.676,12.676,0,0,1-11.009,0c-.147-.066-.207.039-.135.177" transform="translate(-571.739 -738.361)" fill="#ed1420"/>
          <path id="Trazado_7" data-name="Trazado 7" d="M630.274,644.817c.78,1.532,1.924,2.933,4.227,2.933s3.445-1.4,4.226-2.933c.053-.105.008-.194-.116-.141a10.557,10.557,0,0,1-8.22,0c-.124-.053-.172.036-.117.141" transform="translate(-601.719 -615.474)" fill="#ed1420"/>
          <path id="Trazado_8" data-name="Trazado 8" d="M662.624,525.947a3.131,3.131,0,0,0,2.9-2.058c.039-.077,0-.151-.1-.113a9.184,9.184,0,0,1-5.6,0c-.1-.038-.139.035-.1.113a3.136,3.136,0,0,0,2.9,2.058" transform="translate(-629.841 -500.053)" fill="#ed1420"/>
          <path id="Trazado_9" data-name="Trazado 9" d="M621.3,250.485a4.394,4.394,0,1,1,4.4,4.394,4.4,4.4,0,0,1-4.4-4.394" transform="translate(-593.172 -234.949)" fill="#ed1420"/>
          <path id="Trazado_10" data-name="Trazado 10" d="M1868.757,981.874a1.362,1.362,0,1,1,1.362-1.362,1.364,1.364,0,0,1-1.362,1.362m0-2.61a1.249,1.249,0,1,0,1.249,1.249,1.25,1.25,0,0,0-1.249-1.249" transform="translate(-1782.854 -934.822)"/>
          <path id="Trazado_11" data-name="Trazado 11" d="M1887.662,992.714h.534q.476,0,.476.405a.387.387,0,0,1-.1.286.452.452,0,0,1-.252.125l.4.626h-.239l-.4-.625h-.216v.626h-.21Zm.21.626h.249a.59.59,0,0,0,.259-.043.184.184,0,0,0,.082-.18.174.174,0,0,0-.085-.162.462.462,0,0,0-.236-.051h-.269Z" transform="translate(-1802.203 -947.771)"/>
        </g>
      </g>
    </g>
  </g>
</svg>
